<svg>
	<symbol id="logo" viewBox="0 0 115 75" xmlns="http://www.w3.org/2000/svg">
		<path d="M94.2085 0.838625C94.1181 4.88712 94.1181 8.93562 94.0277 12.9841C93.9373 17.0326 93.9373 21.0811 93.8469 25.0396C93.7565 29.0881 93.7565 33.0467 93.7565 37.0952C93.0333 37.0952 92.3102 37.0952 91.6774 37.0952C90.5926 37.0952 89.5982 37.0952 88.5135 37.0952C88.1519 37.0952 88.1519 37.0952 88.1519 36.7353C88.1519 35.4758 88.1519 34.2162 88.1519 32.9567C88.1519 31.9671 88.2423 31.0674 88.2423 30.0778C88.2423 29.448 88.2423 28.9082 88.2423 28.2784C88.2423 27.5587 88.2423 26.9289 88.3327 26.2092C88.3327 25.1296 88.3327 24.05 88.3327 22.9704C88.3327 21.7109 88.4231 20.3614 88.4231 19.1018C88.4231 18.742 88.4231 18.4721 88.4231 18.1122C88.4231 16.043 88.5135 14.0637 88.5135 11.9945C88.5135 10.3751 88.6039 8.66572 88.6039 7.04632C88.6039 6.95635 88.6039 6.86639 88.6039 6.77642C88.6039 6.50652 88.5135 6.50652 88.2423 6.50652C87.0671 6.50652 85.8919 6.50652 84.8072 6.50652C80.92 6.50652 77.0329 6.50652 73.1458 6.50652C71.9707 6.50652 70.7955 6.50652 69.6203 6.50652C68.174 6.50652 66.7276 6.50652 65.2812 6.50652C64.4677 6.50652 63.7445 6.50652 62.9309 6.50652C60.8517 6.50652 58.7726 6.50652 56.6934 6.50652C55.6087 6.50652 54.4335 6.50652 53.3487 6.50652C52.2639 6.50652 51.1792 6.50652 50.0944 6.50652C48.8288 6.50652 47.4729 6.50652 46.2073 6.50652C43.7665 6.50652 41.2354 6.50652 38.7947 6.50652C37.8907 6.50652 36.9867 6.41655 36.0827 6.41655C34.9076 6.41655 33.8228 6.41655 32.6476 6.41655C31.1108 6.41655 29.4837 6.41655 27.9469 6.41655C27.8565 6.41655 27.6757 6.41655 27.4949 6.41655C27.4949 16.5828 27.3141 26.749 27.1334 37.0052C25.235 37.0952 23.427 37.0052 21.6191 37.0052C21.7095 24.8597 21.8903 12.8042 21.9807 0.658691C22.975 0.658691 23.9694 0.658691 24.8734 0.658691C48.0152 1.01856 71.1571 0.838625 94.2085 0.838625Z" />
		<path d="M26.7717 59.4968C26.6813 62.4657 26.6813 65.5246 26.5909 68.5835C26.7717 68.5835 26.8621 68.5835 27.0429 68.5835C29.3028 68.5835 31.6532 68.5835 33.9131 68.5835C35.6307 68.5835 37.2578 68.5835 38.9754 68.5835C40.8738 68.5835 42.8625 68.5835 44.7609 68.5835C45.6649 68.5835 46.5688 68.5835 47.4728 68.5835C48.648 68.5835 49.7327 68.5835 50.9079 68.5835C52.3543 68.5835 53.891 68.5835 55.3374 68.5835C57.2358 68.5835 59.1341 68.5835 60.9421 68.5835C62.4788 68.5835 64.0156 68.5835 65.5524 68.5835C67.2699 68.5835 68.8971 68.5835 70.6146 68.5835C72.3322 68.5835 74.1402 68.5835 75.8577 68.5835C78.3889 68.5835 80.92 68.5835 83.3607 68.5835C84.6263 68.5835 85.9823 68.5835 87.2478 68.5835C87.3382 68.5835 87.4286 68.5835 87.4286 68.5835C87.6998 68.5835 87.7902 68.4935 87.7902 68.2236C87.7902 67.5938 87.7902 66.8741 87.7902 66.2443C87.7902 64.8049 87.7902 63.2754 87.7902 61.836C87.7902 61.2062 87.7902 60.4865 87.7902 59.8567C87.7902 59.6768 87.8806 59.5868 88.0614 59.5868C89.2366 59.5868 90.4118 59.5868 91.5869 59.5868C91.9485 59.5868 92.4005 59.5868 92.7621 59.5868C92.9429 59.5868 93.1237 59.5868 93.3045 59.5868C93.3045 64.535 93.2141 69.3932 93.1237 74.3413C92.5813 74.3413 92.0389 74.3413 91.5869 74.3413C90.1406 74.3413 88.6942 74.3413 87.1574 74.3413C85.8919 74.3413 84.5359 74.3413 83.2703 74.3413C81.7336 74.3413 80.1064 74.3413 78.5696 74.3413C75.9481 74.3413 73.417 74.3413 70.7954 74.3413C68.7163 74.3413 66.5467 74.3413 64.4676 74.3413C61.846 74.3413 59.2245 74.3413 56.603 74.3413C52.4447 74.3413 48.2864 74.3413 44.1281 74.3413C42.4105 74.3413 40.6026 74.3413 38.885 74.3413C36.7155 74.3413 34.6363 74.3413 32.4668 74.3413C31.2916 74.3413 30.026 74.3413 28.8509 74.3413C27.4045 74.3413 25.9581 74.3413 24.5118 74.3413C23.427 74.3413 22.3422 74.3413 21.2574 74.3413C21.167 74.3413 20.9862 74.3413 20.8055 74.3413C20.8055 69.3932 20.9862 64.535 20.9862 59.5868H26.7717V59.4968Z" />
		<path d="M78.3889 17.3925C78.2081 17.4825 78.0273 17.4825 77.9369 17.4825C77.4849 17.5724 77.033 17.3925 76.9426 16.9427C76.8522 16.4928 76.6714 16.043 76.4906 15.5932C76.0386 14.4236 75.4962 13.254 74.5922 12.3544C73.7786 11.5447 72.7843 10.9149 71.6091 10.8249C70.7955 10.735 69.8915 10.735 69.0779 10.735C67.8124 10.735 66.5468 10.735 65.2812 10.8249C64.5581 10.8249 63.7445 10.9149 63.0213 11.0049C62.3885 11.0948 61.8461 11.3647 61.3037 11.9045C60.2189 12.9841 59.1342 14.0637 58.0494 15.1433C56.9646 16.2229 55.8799 17.3025 54.8855 18.4721C54.7951 18.5621 54.6143 18.742 54.5239 18.9219C54.7951 19.3718 55.1567 19.8216 55.4279 20.2714C56.6934 22.1607 57.959 24.14 59.2246 26.0293C60.1286 27.3788 61.0325 28.8183 61.9365 30.1678C63.0213 31.7872 64.0157 33.3166 65.1004 34.936C65.462 35.4758 66.0044 35.6557 66.5468 35.7457C66.9084 35.7457 67.27 35.7457 67.6316 35.7457H68.0836V36.8253C67.722 36.9153 55.0663 36.9153 54.3431 36.8253V36.2855V35.6557H57.4166C57.3262 35.4758 57.2358 35.3858 57.2358 35.2059C56.151 33.4965 55.0663 31.7872 53.9815 30.0778C52.6255 27.9186 51.1792 25.7594 49.8232 23.6002C49.6424 23.3303 49.552 23.0604 49.4616 22.7905C49.2808 22.1607 49.552 21.7109 50.004 21.2611C50.5464 20.6313 51.1792 20.0015 51.812 19.3718C53.2583 17.8423 54.7951 16.4029 56.2415 14.8734C57.1454 13.9738 58.0494 13.0741 58.9534 12.1744C59.1342 11.9945 59.315 11.7246 59.4958 11.5447C59.6766 11.1848 59.5862 10.9149 59.0438 10.9149C58.5014 10.9149 57.959 10.8249 57.4166 10.8249C57.055 10.8249 56.6934 10.8249 56.3318 10.8249C56.2414 10.8249 56.2414 10.8249 56.151 10.735V9.47545H78.3889C78.2985 12.2644 78.2985 14.7835 78.3889 17.3925Z" />
		<path d="M48.8288 35.7456C49.8232 35.7456 50.8176 35.6557 51.8119 35.7456V36.9152H38.8851C38.8851 36.5553 38.8851 36.1955 38.9755 35.7456H41.7778C41.9586 35.1159 42.2298 13.0741 42.1394 11.0048C41.2354 10.9149 40.241 11.0048 39.2467 10.9149V9.74529H52.2639V11.0048H49.1904C49.1904 11.3647 49.1 11.6346 49.1 11.9045C49.1 13.7938 49.1 15.6831 49.0096 17.4824C49.0096 20.0914 48.9192 22.6105 48.9192 25.2195C48.9192 27.1988 48.8288 29.0881 48.8288 31.0674C48.8288 32.5068 48.8288 33.9463 48.7384 35.3858C48.8288 35.4757 48.8288 35.5657 48.8288 35.7456Z" />
		<path d="M65.5524 23.7801C65.462 27.0189 65.462 30.2577 65.3716 33.4965C65.01 33.2266 64.8292 32.9567 64.6484 32.5968C63.5637 30.8875 62.3885 29.1781 61.3037 27.4687C60.5805 26.3891 59.9477 25.3995 59.315 24.3199C58.9534 23.6901 58.7726 23.0604 58.7726 22.3407C58.7726 20.3614 58.863 18.2922 58.863 16.3129C58.863 15.8631 59.0438 15.5032 59.315 15.1433C60.1285 14.3336 60.8517 13.5239 61.6653 12.7142C62.2981 11.9945 63.1117 11.7246 64.106 11.6346C64.6484 11.6346 65.1908 11.6346 65.8236 11.6346C65.8236 13.344 65.7332 15.0534 65.7332 16.7627C65.7332 18.4721 65.6428 20.1815 65.6428 21.9808C66.0044 22.0708 66.2756 22.0708 66.5468 22.0708C68.4451 22.1607 70.1627 21.0811 70.7955 19.1918C70.9763 18.652 71.0667 18.1122 71.2475 17.5724C71.3379 17.3925 71.3379 17.2126 71.3379 17.0326H72.513C72.6938 17.3925 72.513 17.7524 72.513 18.1122C72.513 19.2818 72.5131 20.4514 72.4227 21.531C72.4227 22.8805 72.3323 24.3199 72.3323 25.6694C72.3323 26.4791 72.3323 27.2888 72.3323 28.0985C72.3323 28.4584 72.3323 28.4584 71.9707 28.5483C71.8803 28.5483 71.7899 28.6383 71.7899 28.6383C71.2475 28.7283 71.0667 28.6383 70.9763 28.0985C70.7955 27.3788 70.7051 26.659 70.4339 25.9393C70.1627 25.2196 69.7107 24.5898 69.0779 24.14C68.3547 23.6902 67.6316 23.6002 66.818 23.5102C66.366 23.7801 66.0044 23.7801 65.5524 23.7801Z" />
		<path d="M15.1104 48.5209C14.8392 49.1506 14.6584 49.6904 14.3872 50.3202C15.02 50.0503 15.472 49.6904 15.924 49.3306C16.376 49.0607 16.828 48.7008 17.3704 48.3409C17.4608 48.8807 17.3704 49.2406 17.28 49.6904C16.828 50.77 16.4664 51.9396 16.1048 53.1092C16.1048 53.1991 16.1048 53.2891 16.1048 53.3791H16.1952C16.2856 53.2891 16.376 53.1092 16.4664 53.0192C17.6416 51.2199 19.1783 49.7804 20.9863 48.6108C21.1671 48.5209 21.3479 48.4309 21.4383 48.4309C21.7999 48.4309 21.9807 48.7008 21.7999 49.0607C21.6191 49.3306 21.4383 49.6904 21.2575 49.9603C21.2575 50.0503 21.1671 50.0503 21.1671 50.2302C22.2519 49.6904 23.3366 48.9707 24.4214 48.3409C24.4214 48.6108 24.5118 48.8807 24.5118 49.1506C24.5118 49.5105 24.6022 49.7804 24.6022 50.1402C24.6926 50.68 24.9638 50.86 25.4158 50.5901C26.139 50.1402 26.8621 49.6005 27.6757 49.1506C27.7661 49.1506 27.7661 49.0607 27.8565 49.0607C28.3085 48.7908 28.4893 48.8807 28.6701 49.3306C28.7605 49.6005 28.8509 49.7804 28.9413 50.0503C29.1221 50.5901 29.5741 50.77 30.1165 50.5001C31.1108 50.1403 32.1052 49.6904 32.8284 48.9707C33.0092 48.7908 33.19 48.7008 33.3708 48.6108C33.8228 48.3409 33.9132 48.4309 34.4556 48.7008C34.3652 49.1506 34.1844 49.4205 33.8228 49.6904C33.642 49.7804 33.4612 49.9603 33.19 50.1402C33.3708 50.3202 33.4612 50.4102 33.5516 50.5001C34.1844 50.86 34.9076 50.95 35.6307 50.86C36.9867 50.6801 38.1619 49.9603 39.2466 49.1506C39.5178 48.8807 39.8794 48.7908 40.3314 48.7008C40.3314 49.0607 40.3314 49.4205 40.1506 49.7804C39.9698 50.0503 39.789 50.4102 39.6082 50.77C39.9698 50.77 40.241 50.5901 40.4218 50.4102C41.145 49.9603 41.8682 49.5105 42.5914 49.0607L42.6818 48.9707C43.3146 48.6108 43.5857 48.6108 43.9473 49.3306C44.1281 49.6904 44.3993 49.9603 44.6705 50.3202C45.2129 50.86 46.1169 51.0399 46.8401 50.77C47.6536 50.5001 48.2864 50.0503 49.0096 49.6005C49.1 49.5105 49.1904 49.5105 49.1904 49.4205C49.8232 49.1506 50.0944 48.5208 50.3656 47.8911C50.9984 46.2717 51.7215 44.6523 52.4447 43.0329C52.6255 42.673 52.8967 42.4931 53.2583 42.2232C53.4391 42.5831 53.4391 42.9429 53.2583 43.3028C52.9871 43.8426 52.7159 44.4724 52.4447 45.0122C51.7215 46.7215 50.9984 48.5209 50.2752 50.2302C50.2752 50.2302 50.2752 50.3202 50.2752 50.4102C50.456 50.3202 50.5464 50.3202 50.6368 50.3202C51.4504 49.7804 52.3543 49.3305 53.1679 48.7908C53.5295 48.6108 53.8007 48.4309 54.2527 48.5209C54.2527 48.6108 54.3431 48.7908 54.4335 48.9707C53.7103 49.5105 53.0775 50.1403 52.3543 50.77C52.7159 51.0399 52.9871 51.0399 53.3487 50.95C54.5239 50.68 55.5182 50.2302 56.3318 49.3306C56.5126 49.1506 56.7838 48.9707 56.9646 48.8807C57.3262 48.7008 57.5974 48.7008 57.8686 48.9707C57.7782 49.4205 57.5974 49.6904 57.2358 49.8704C56.7838 50.1403 56.5126 50.4102 56.7838 50.95C57.055 50.86 57.2358 50.68 57.3262 50.5001C57.4166 50.4102 57.507 50.3202 57.5974 50.1402C57.7782 49.8703 58.0494 49.7804 58.411 49.7804C59.0438 49.7804 59.5862 49.7804 60.2189 49.6904C61.0325 49.6004 61.7557 49.3306 62.3885 48.9707C62.7501 48.7908 63.0213 48.7008 63.2925 48.7908C63.3829 48.7908 63.4733 48.7908 63.5637 48.8807C63.3829 49.2406 63.2021 49.6004 62.8405 49.6904C61.8461 50.0503 60.9421 50.4102 59.9477 50.5001C59.4958 50.5901 59.0438 50.5901 58.6822 50.5901C58.3206 50.5901 58.0494 50.77 57.7782 51.0399C57.5974 51.2198 57.4166 51.3998 57.2358 51.4897C56.6934 51.8496 56.2414 51.7597 55.9702 51.1299C55.8798 51.0399 55.8798 50.95 55.7895 50.77C55.3375 50.95 54.9759 51.0399 54.5239 51.2199C54.1623 51.3098 53.8007 51.4898 53.4391 51.5797C52.8967 51.7597 52.3543 51.6697 51.8119 51.3998C51.6311 51.3098 51.4504 51.0399 51.2696 50.86C50.6368 51.0399 50.1848 51.7597 49.3712 51.7597C49.1904 51.3098 49.3712 50.95 49.4616 50.4102C49.0096 50.5901 48.648 50.86 48.196 51.0399C47.6536 51.2198 47.2017 51.4898 46.6593 51.5797C45.3033 51.8496 44.2185 51.3098 43.405 50.0503C43.3146 49.9603 43.2242 49.8703 43.1338 49.6904C42.501 50.1402 41.8682 50.5001 41.2354 50.95C40.8738 51.1299 40.6026 51.3998 40.241 51.5797C39.789 51.8496 39.2466 51.8496 38.6139 51.6697C38.6139 51.3998 38.6139 51.1299 38.6139 50.86C38.5235 50.86 38.3427 50.95 38.2523 50.95C37.6195 51.2199 36.9867 51.4898 36.3539 51.7597C35.3595 52.1195 34.2748 52.1195 33.3708 51.5797C33.0996 51.4898 32.9188 51.2198 32.738 51.0399C32.6476 50.9499 32.5572 50.86 32.4668 50.6801C32.0148 50.86 31.6532 51.0399 31.2012 51.2199C30.8397 51.3998 30.4781 51.4898 30.1165 51.5797C29.4837 51.7597 28.9413 51.4897 28.5797 50.95C28.4893 50.77 28.3989 50.5901 28.2181 50.4102C28.0373 50.5901 27.8565 50.6801 27.6757 50.77C27.1333 51.2199 26.5006 51.5797 25.7774 51.7597C24.9638 51.9396 24.4214 51.6697 24.1502 50.86C24.0598 50.5901 23.9694 50.3202 23.9694 50.0503C23.6982 50.1403 23.5174 50.2302 23.3366 50.4102C22.7038 50.77 22.0711 51.2199 21.3479 51.5797C20.9863 51.7597 20.5343 51.9396 20.0823 51.7597V50.95C19.9919 51.0399 19.9015 51.0399 19.8111 51.1299C18.8167 51.9396 18.0032 52.7493 17.28 53.7389C16.1048 55.2683 15.3816 57.0677 14.7488 58.867C14.7488 58.957 14.6584 59.0469 14.6584 59.1369C14.568 59.4068 14.3872 59.4968 14.2064 59.4068C13.9353 59.4068 13.7545 59.2269 13.7545 58.957C13.7545 58.777 13.7545 58.5971 13.8448 58.4172C14.568 56.168 15.2008 53.8289 16.0144 51.5797C16.1048 51.3098 16.1952 51.1299 16.1952 50.86C16.1952 50.86 16.1048 50.86 16.1048 50.77C15.7432 50.95 15.3816 51.2198 15.02 51.3998C14.6584 51.5797 14.2064 51.5797 13.7545 51.6697C13.7545 51.2199 13.6641 50.86 13.6641 50.4102C13.3025 50.5901 12.9409 50.6801 12.5793 50.77C11.4041 51.2199 10.1385 51.5797 8.96337 51.9396C8.87297 51.9396 8.78257 51.9396 8.69218 51.9396C8.24019 51.9396 7.96899 51.7597 7.96899 51.3098C7.96899 51.0399 7.969 50.77 7.8786 50.4102C7.69781 50.5001 7.6074 50.5001 7.517 50.5901C6.88422 51.0399 6.25144 51.4898 5.43786 51.6697C4.62428 51.9396 3.81069 51.6697 3.4491 50.86C3.3587 50.5901 3.26831 50.3202 3.17792 50.0503C3.17792 49.9603 3.08751 49.8703 3.08751 49.6904C2.90672 49.8703 2.81632 49.9603 2.63552 50.0503C2.09314 50.5001 1.55075 51.0399 1.09876 51.4897C0.827571 51.7596 0.465974 51.8496 0.104382 51.8496C0.0139846 51.3998 -0.0764132 51.0399 0.104382 50.6801C0.556372 49.1506 1.00837 47.5312 1.55075 46.0018C1.73155 45.372 2.00274 44.7423 2.18354 44.1125C2.27393 43.8426 2.45473 43.5727 2.63552 43.3028C2.99712 43.4827 3.17791 43.8426 3.08751 44.2025C2.81632 45.0122 2.54513 45.9118 2.27394 46.7215C1.91235 47.8011 1.55074 48.8807 1.18915 49.9603C1.09876 50.1403 1.09876 50.3202 1.09876 50.5001L1.18915 50.5901C1.36995 50.4101 1.55075 50.3202 1.73155 50.1402C2.90672 48.9707 4.08188 47.8011 5.25706 46.5416C5.52825 46.2717 5.88984 45.9118 6.16103 45.6419C6.43223 45.2821 6.88422 45.1921 7.33621 45.1021C7.42661 45.462 7.33621 45.8219 7.06501 46.0918C6.43223 46.8115 5.79945 47.5312 5.16667 48.161C4.89547 48.4309 4.62427 48.7008 4.35308 48.9707C3.99149 49.3306 3.9011 49.9603 4.08189 50.4102C4.44349 51.1299 5.07627 51.1299 5.61866 50.77C5.98025 50.5901 6.25143 50.3202 6.61302 50.1402C7.06501 49.8703 7.42661 49.5105 7.7882 49.1506C8.05939 48.8807 8.33058 48.6108 8.42098 48.251C8.96337 46.8115 9.50576 45.462 10.0481 44.1125C10.1385 43.9326 10.1385 43.8426 10.2289 43.6627C10.5001 43.0329 10.8617 42.4931 11.4945 42.3132C11.7657 42.673 11.8561 43.1229 11.7657 43.5727C11.4041 45.372 10.6809 46.9914 9.68656 48.5209C9.59616 48.7008 9.41536 48.8807 9.32496 49.0607C8.78257 49.6005 8.78258 50.2302 8.78258 50.86C8.78258 50.86 8.78257 50.95 8.87297 50.95C9.05376 50.95 9.32497 50.95 9.50576 50.86C11.0425 50.4102 12.4889 49.9603 13.8448 49.2406C14.0256 48.7008 14.4776 48.5209 15.1104 48.5209Z" />
		<path d="M87.7903 50.1403C87.4287 50.4102 87.0671 50.6801 86.7055 50.95C86.3439 51.2199 85.8016 51.3999 85.3496 51.5798C84.8072 51.7597 84.084 51.4898 83.9032 50.8601C83.8128 50.5902 83.7224 50.4102 83.7224 50.1403C83.632 49.9604 83.5416 49.8704 83.4512 49.9604C83.3608 50.0504 83.18 50.0504 83.0896 50.1403C82.4568 50.5002 81.9145 50.8601 81.2817 51.2199C81.1009 51.3099 80.8297 51.4898 80.5585 51.4898C80.1065 51.5798 79.8353 51.3999 79.7449 50.95C79.7449 50.95 79.7449 50.8601 79.6545 50.7701C79.5641 50.8601 79.4737 50.8601 79.3833 50.95C78.2081 51.6698 77.033 51.6698 75.7674 51.13C75.677 51.04 75.4962 51.04 75.4058 50.95C75.1346 50.8601 74.8634 50.8601 74.5922 51.04C74.321 51.2199 73.9595 51.3999 73.6883 51.4898C73.3267 51.5798 72.9651 51.3099 73.0555 50.95C73.0555 50.7701 73.1459 50.5902 73.2363 50.4102C73.2363 50.3203 73.2363 50.2303 73.3267 50.0504C73.0555 50.0504 72.7843 50.1403 72.5131 50.1403C71.9707 50.1403 71.4283 50.2303 70.8859 50.2303C70.3435 50.2303 69.8915 50.2303 69.3492 50.2303C68.8972 50.2303 68.8068 50.3203 68.626 50.7701C68.3548 51.4898 68.2644 51.5798 67.6316 51.7597C67.6316 51.3999 67.5412 51.13 67.5412 50.7701C67.3604 50.7701 67.0892 50.8601 66.9084 50.8601C66.7276 50.8601 66.5468 50.7701 66.366 50.7701C66.6372 50.1403 66.9988 49.7805 67.6316 49.6905C67.9932 49.6905 68.2644 49.4206 68.3548 49.1507C68.8068 47.8912 69.1684 46.7216 69.1684 45.3721C69.1684 44.5624 69.3492 44.3825 70.1627 44.4724C71.5187 44.5624 72.9651 44.6524 74.321 44.7423C75.1346 44.7423 76.0386 44.7423 76.8522 44.5624C77.3042 44.4724 77.3946 44.4724 78.0273 44.8323C77.8465 45.1922 77.6658 45.3721 77.2138 45.4621C76.4906 45.642 75.7674 45.642 75.0442 45.642C73.5979 45.552 72.2419 45.552 70.7955 45.4621C70.5243 45.4621 70.3435 45.4621 70.0723 45.4621C69.8012 46.8116 69.5299 48.0711 69.2588 49.4206C69.5299 49.4206 69.8011 49.5106 69.9819 49.5106C71.1571 49.6005 72.3323 49.6905 73.5075 49.2407C73.7786 49.1507 74.1402 48.9708 74.4114 48.7908C74.6826 48.6109 75.0442 48.6109 75.3154 48.7009C75.4058 48.9708 75.3154 49.2407 75.1346 49.4206C75.0442 49.6005 74.8634 49.7805 74.6826 50.0504C75.4058 50.0504 75.9482 50.4102 76.4906 50.6801C76.8522 50.8601 77.2138 50.95 77.5754 50.95C78.1177 50.95 78.5697 50.7701 78.9313 50.4102C79.3833 50.0504 79.9257 49.6005 80.3777 49.2407C80.7393 48.9708 81.1009 48.7908 81.4625 48.6109C81.5529 49.3306 81.3721 49.7805 81.0105 50.3203C81.1913 50.5002 81.2817 50.3203 81.3721 50.3203C81.9145 50.0504 82.4568 49.6905 82.9992 49.4206C83.3608 49.1507 83.8128 48.9708 84.2648 48.7009C84.2648 48.8808 84.3552 49.0607 84.3552 49.1507C84.4456 49.6005 84.4456 50.0504 84.536 50.4102C84.6264 51.04 84.8976 51.13 85.44 50.8601C85.892 50.5902 86.344 50.2303 86.7959 49.9604C87.1575 49.7805 87.4287 49.5106 87.7903 49.2407C88.1519 49.0607 88.3327 49.0607 88.4231 49.5106C88.5135 49.7805 88.5135 49.9604 88.6039 50.2303C88.8751 50.8601 89.1463 51.04 89.8695 50.7701C90.3215 50.5902 90.7734 50.3203 91.135 50.1403C91.7678 49.7805 92.491 49.4206 93.1238 48.9708H93.2142C93.4854 48.7908 93.7566 48.7908 93.847 48.9708C94.0278 49.1507 93.9374 49.4206 93.847 49.6005C93.7566 49.8704 93.6662 50.0504 93.5758 50.3203C93.395 50.7701 93.6662 51.04 94.1182 51.04C95.1125 51.04 96.1069 50.95 97.1013 50.5002C98.2765 50.0504 99.542 49.5106 100.717 49.0607C101.169 48.8808 101.35 48.431 101.531 47.9811C102.073 46.4517 102.706 45.0122 103.248 43.4828C103.429 43.1229 103.61 42.853 103.881 42.5831C104.243 42.3132 104.604 42.4032 104.695 42.7631C104.785 42.943 104.785 43.1229 104.695 43.3029C104.695 43.5728 104.604 43.8427 104.514 44.0226C104.152 45.2821 103.7 46.5417 103.068 47.7112C102.796 48.1611 102.435 48.6109 102.164 49.0607C101.892 49.4206 101.802 49.6905 101.802 50.1403C101.802 50.4102 101.712 50.5902 101.712 50.95C101.892 50.95 102.073 50.95 102.254 50.95C103.429 50.6801 104.514 50.3203 105.599 49.7805C106.141 49.5106 106.683 49.2407 107.226 49.0607C107.497 48.9708 107.859 48.8808 108.311 48.7009C108.13 49.3306 107.949 49.8704 107.768 50.3203L107.859 50.4102C108.039 50.3203 108.22 50.2303 108.401 50.1403C108.853 49.7805 109.305 49.4206 109.847 49.1507C110.028 48.9708 110.299 48.8808 110.571 48.7908C110.661 49.1507 110.661 49.4206 110.571 49.6905C110.48 50.0504 110.39 50.4102 110.209 50.7701C110.028 51.3999 109.757 52.0296 109.576 52.6594C109.486 52.9293 109.395 53.1092 109.305 53.3791C109.486 53.4691 109.576 53.3791 109.667 53.2892C109.938 52.9293 110.209 52.5694 110.48 52.2096C111.294 51.2199 112.198 50.3203 113.192 49.6005C113.644 49.2407 114.006 48.9708 114.548 48.7908C114.819 48.7009 115 48.8808 115 49.1507C115 49.2407 114.91 49.3306 114.819 49.4206C114.458 49.6905 114.186 49.9604 113.825 50.2303C112.379 51.2199 111.203 52.4795 110.209 53.9189C109.576 54.9086 109.034 55.9882 108.582 57.0678C108.401 57.5176 108.22 58.0574 108.039 58.5072C107.949 58.6872 107.949 58.8671 107.859 58.9571C107.768 59.137 107.587 59.227 107.316 59.227C107.135 59.137 106.955 58.8671 106.955 58.5972C106.955 58.3273 107.045 57.9674 107.135 57.6975C107.316 56.8878 107.587 56.1681 107.859 55.3584C108.22 54.2788 108.491 53.2892 108.853 52.2995C108.943 51.9397 109.124 51.4898 109.215 51.13C109.215 51.04 109.215 50.8601 109.305 50.6801C108.853 50.95 108.491 51.13 108.039 51.3099C107.859 51.3999 107.587 51.4898 107.407 51.4898C106.955 51.4898 106.683 51.2199 106.683 50.7701C106.683 50.6801 106.683 50.5002 106.683 50.3203C106.503 50.4102 106.412 50.4102 106.231 50.5002C104.876 51.04 103.429 51.4898 101.983 51.8497C101.531 51.9397 101.169 51.6698 101.079 51.2199C101.079 50.8601 101.079 50.5902 101.079 50.2303C101.079 50.1403 101.079 50.0504 101.079 49.9604C100.988 49.9604 100.808 49.9604 100.717 50.0504C99.6324 50.4102 98.5476 50.8601 97.4629 51.2199C96.5589 51.5798 95.5645 51.7597 94.5702 51.8497H94.4798C93.5758 51.7597 93.2142 51.6698 92.8526 50.6801C92.7622 50.4102 92.7622 50.3203 92.4006 50.5002C91.6774 50.8601 90.9542 51.13 90.231 51.4898C89.5983 51.7597 88.9655 51.7597 88.4231 51.3099C88.2423 51.13 88.0615 50.8601 87.8807 50.5902C87.8807 50.2303 87.8807 50.2303 87.7903 50.1403Z" />
		<path d="M82.6376 59.7668C82.6376 59.227 82.6376 58.7771 82.6376 58.2373C82.6376 58.0574 82.6376 57.8775 82.6376 57.7875C82.6376 57.6076 82.8184 57.6076 82.9088 57.6975C82.9088 58.6872 82.9088 59.6768 82.9088 60.6664C82.6376 60.7564 82.5472 60.5765 82.4568 60.4865C82.0952 59.9467 81.6432 59.4069 81.2817 58.9571C81.1913 58.7771 81.0105 58.6872 80.8297 58.4173C80.7393 59.227 80.8297 59.9467 80.7393 60.6664C80.5585 60.7564 80.4681 60.7564 80.4681 60.5765C80.4681 60.3066 80.4681 60.0367 80.4681 59.8567C80.4681 59.3169 80.4681 58.7771 80.4681 58.3273C80.4681 58.2373 80.4681 58.1474 80.4681 58.0574C80.5585 57.8775 80.6489 57.7875 80.8297 57.9674C80.9201 58.0574 81.0105 58.1474 81.0105 58.2373C81.4625 58.7771 81.824 59.3169 82.276 59.8567C82.3664 59.9467 82.4568 60.0367 82.5472 60.1266L82.6376 59.7668Z" />
		<path d="M54.5238 57.4276C55.0662 57.4276 55.4278 57.5176 55.8798 57.5176C56.151 57.5176 56.4222 57.6975 56.603 57.9674C56.9646 58.5072 57.055 59.047 56.7838 59.5868C56.5126 60.1266 56.151 60.3965 55.5182 60.4865C55.1566 60.4865 54.8854 60.4865 54.5238 60.4865V57.4276ZM54.8854 60.1266C55.5182 60.2166 56.0606 60.2166 56.4222 59.5868C56.6934 59.137 56.6934 58.6871 56.4222 58.2373C56.0606 57.6975 55.5182 57.6975 54.9758 57.6975C54.795 58.3273 54.795 59.4969 54.8854 60.1266Z" />
		<path d="M75.7674 57.5176C76.6713 57.5176 77.2137 58.1474 77.2137 59.0471C77.2137 59.9467 76.4906 60.6665 75.7674 60.6665C74.9538 60.6665 74.2306 60.0367 74.2306 59.137C74.2306 58.1474 74.8634 57.5176 75.7674 57.5176ZM76.8522 59.0471C76.8522 58.3273 76.4002 57.8775 75.7674 57.8775C75.1346 57.8775 74.5922 58.4173 74.5922 59.137C74.5922 59.7668 75.1346 60.3966 75.7674 60.3066C76.3098 60.3066 76.8522 59.7668 76.8522 59.0471Z" />
		<path d="M37.981 60.5765C37.0771 60.6664 36.5347 59.8567 36.5347 58.957C36.5347 58.1474 37.2578 57.4276 38.0714 57.4276C38.885 57.4276 39.5178 58.0574 39.5178 58.957C39.5178 59.8567 38.7946 60.6664 37.981 60.5765ZM39.1562 59.047C39.1562 58.3273 38.7042 57.7875 38.0714 57.8775C37.4386 57.8775 36.9867 58.3273 36.8963 59.137C36.8963 59.7667 37.3483 60.3065 37.981 60.3065C38.7042 60.3065 39.1562 59.6768 39.1562 59.047Z" />
		<path d="M48.8288 60.4865C48.5576 60.5765 48.5576 60.4865 48.5576 60.3066C48.5576 59.6768 48.5576 59.137 48.5576 58.5073C48.5576 58.1474 48.5576 57.8775 48.5576 57.5176C48.8288 57.4277 48.9192 57.6076 49.0096 57.6976C49.2808 58.0574 49.5519 58.4173 49.8231 58.7772C50.0039 59.0471 50.1847 59.317 50.3655 59.5869C50.4559 59.6768 50.4559 59.6768 50.6367 59.7668C50.6367 59.5869 50.6367 59.4069 50.6367 59.227C50.6367 58.7772 50.6367 58.3273 50.6367 57.8775C50.6367 57.6976 50.6367 57.5176 50.9079 57.5176C50.9079 58.5073 50.9079 59.4969 50.9079 60.4865C50.6367 60.5765 50.5463 60.3966 50.4559 60.3066C50.0039 59.7668 49.6423 59.227 49.1904 58.6872C49.1 58.5972 49.0096 58.5073 48.8288 58.3273C48.8288 59.0471 48.9192 59.7668 48.8288 60.4865Z" />
		<path d="M62.4788 60.3965C62.298 60.4864 62.2076 60.4864 62.1172 60.3065C62.0268 60.1266 61.9365 59.9466 61.9365 59.7667C61.8461 59.5868 61.7556 59.4968 61.5749 59.4968C61.4845 59.4968 61.3941 59.4968 61.3941 59.4968C60.7613 59.4068 60.3093 59.5868 60.2189 60.2165C60.2189 60.3965 60.0381 60.4864 59.8573 60.3065C60.2189 59.4068 60.5805 58.5072 60.9421 57.6075V57.5175C61.0325 57.4276 61.1229 57.3376 61.2133 57.3376C61.3037 57.3376 61.3941 57.4276 61.3941 57.5175C61.4845 57.6075 61.4845 57.7874 61.5749 57.8774C61.846 58.867 62.1172 59.5868 62.4788 60.3965ZM60.5805 59.2269H61.5749C61.4845 58.7771 61.3037 58.4172 61.0325 58.0573C60.9421 58.4172 60.7613 58.7771 60.5805 59.2269Z" />
		<path d="M44.7609 57.5176C44.9417 57.4276 45.1225 57.4276 45.1225 57.6975C45.1225 58.3273 45.1225 59.047 45.0321 59.6768C44.9417 60.2166 44.3993 60.5764 43.8569 60.5764C43.2241 60.5764 42.7721 60.1266 42.7721 59.4968C42.7721 58.957 42.7721 58.3273 42.7721 57.7875C42.7721 57.6075 42.8625 57.5176 43.0433 57.5176C43.0433 57.6975 43.0433 57.8774 43.0433 57.9674C43.0433 58.3273 43.0433 58.6871 43.0433 59.047C43.0433 59.2269 43.0433 59.4968 43.1337 59.6768C43.2241 60.0366 43.4953 60.2166 43.9473 60.2166C44.3089 60.2166 44.5801 60.0366 44.6705 59.6768C44.7609 59.4069 44.7609 59.137 44.7609 58.8671C44.7609 58.4172 44.7609 57.9674 44.7609 57.5176Z" />
		<path d="M31.9244 57.5176H33.4612C33.4612 57.6076 33.4612 57.6976 33.4612 57.7875H32.1956V58.8671H33.3708C33.4612 59.137 33.2804 59.227 33.0996 59.227C32.8284 59.227 32.5572 59.227 32.1956 59.227C32.1956 59.6768 32.1956 60.0367 32.1052 60.4865C31.834 60.5765 31.834 60.4865 31.834 60.2166C31.834 59.5869 31.834 58.9571 31.834 58.3273C31.834 58.1474 31.834 57.8775 31.9244 57.5176Z" />
		<path d="M66.366 60.4865C65.914 60.5765 66.0044 60.3066 66.0044 60.1267C66.0044 59.5869 66.0044 59.0471 66.0044 58.5972C66.0044 58.3273 66.0948 58.0574 65.914 57.8775C65.6428 57.8775 65.3716 57.8775 65.1908 57.7875C65.1004 57.7875 65.1004 57.6976 65.01 57.6076C65.1004 57.6076 65.1004 57.5176 65.1908 57.5176C65.2812 57.5176 65.3716 57.5176 65.462 57.5176C66.0044 57.5176 66.5468 57.5176 67.0892 57.5176C67.27 57.5176 67.3604 57.6076 67.3604 57.8775C67.0892 57.8775 66.7276 57.8775 66.366 57.9675V60.4865Z" />
	</symbol>

	<svg id="lang" viewBox="0 0 32 32" xmlns="http://www.w3.org/2000/svg">
		<path d="M28.0375 11.8C28.9873 14.5194 28.9873 17.4805 28.0375 20.2L28 20.3C27.1126 22.7716 25.4837 24.9089 23.3359 26.4198C21.188 27.9307 18.626 28.7416 16 28.7416C13.3739 28.7416 10.8119 27.9307 8.66411 26.4198C6.51627 24.9089 4.88737 22.7716 3.99999 20.3L3.96249 20.2C3.01267 17.4805 3.01267 14.5194 3.96249 11.8L3.99999 11.7C4.88608 9.22797 6.51387 7.08983 8.66092 5.57779C10.808 4.06574 13.3695 3.25353 15.9956 3.25217C18.6216 3.2508 21.184 4.06033 23.3327 5.57014C25.4813 7.07996 27.1113 9.21639 28 11.6875L28.0375 11.8ZM12.4625 11.25H19.5375C18.825 8.9625 17.6125 6.9125 16 5.3375C14.3875 6.9125 13.175 8.9625 12.4625 11.25ZM12.0875 12.75C11.6374 14.8933 11.6374 17.1067 12.0875 19.25H19.9125C20.3626 17.1067 20.3626 14.8933 19.9125 12.75H12.0875ZM4.74999 16C4.74738 17.1008 4.90744 18.196 5.22499 19.25H10.55C10.1499 17.1018 10.1499 14.8982 10.55 12.75H5.22499C4.90744 13.804 4.74738 14.8992 4.74999 16ZM19.5375 20.75H12.4625C13.175 23.0375 14.3875 25.0875 16 26.6625C17.6125 25.0875 18.825 23.0375 19.5375 20.75ZM21.4625 19.25H26.775C27.4087 17.1297 27.4087 14.8703 26.775 12.75H21.4625C21.8458 14.8997 21.8458 17.1003 21.4625 19.25ZM26.2 20.75H21.1125C20.4716 23.1213 19.2762 25.3064 17.625 27.125C19.4704 26.8554 21.2199 26.1318 22.7166 25.0191C24.2133 23.9065 25.4102 22.4395 26.2 20.75ZM14.375 27.125C12.7238 25.3064 11.5284 23.1213 10.8875 20.75H5.79999C6.58973 22.4395 7.78667 23.9065 9.28335 25.0191C10.78 26.1318 12.5296 26.8554 14.375 27.125ZM5.79999 11.25H10.8875C11.531 8.87601 12.7259 6.68749 14.375 4.8625C12.5298 5.13758 10.7813 5.86473 9.28518 6.97918C7.78906 8.09363 6.59179 9.56079 5.79999 11.25ZM17.625 4.8625C19.274 6.68749 20.4689 8.87601 21.1125 11.25H26.2C25.4082 9.56079 24.2109 8.09363 22.7148 6.97918C21.2187 5.86473 19.4702 5.13758 17.625 4.8625Z" />
	</svg>

	<symbol id="direction-1" viewBox="0 0 100 100" fill="none" xmlns="http://www.w3.org/2000/svg">
		<circle cx="50" cy="50" r="49.5" stroke="#56265C"/>
		<path fill-rule="evenodd" clip-rule="evenodd" d="M49.886 25.1582L50.1952 24.7653L49.886 24.522L49.5768 24.7653L49.886 25.1582ZM63.1418 33.7598C62.8336 33.366 62.8336 33.3661 62.8335 33.3661L62.8332 33.3664L62.8323 33.3671L62.8289 33.3697L62.8167 33.3794L62.7702 33.4162C62.7299 33.4483 62.6712 33.4954 62.5967 33.5558C62.4479 33.6767 62.2359 33.8513 61.9819 34.0677C61.4744 34.4998 60.7959 35.1007 60.1158 35.7735C59.4378 36.444 58.7467 37.1972 58.2216 37.9335C57.7132 38.6464 57.293 39.4341 57.293 40.1551C57.293 40.8003 57.4644 41.3656 57.7912 41.8422C58.1151 42.3148 58.5735 42.6742 59.11 42.9424C59.2375 43.0062 59.3702 43.0652 59.5078 43.1197V45.2411C58.4051 43.1433 56.6289 41.4664 54.457 40.4883V37.448C54.6937 37.3624 54.92 37.2675 55.1346 37.1627C55.83 36.8229 56.4198 36.3703 56.8358 35.7781C57.2551 35.1813 57.479 34.4689 57.479 33.6466C57.479 32.7506 56.9492 31.7446 56.2778 30.8035C55.5893 29.8385 54.6804 28.8457 53.7846 27.9573C52.8865 27.0666 51.9902 26.2695 51.3192 25.6957C50.9834 25.4086 50.7034 25.1767 50.5069 25.0163C50.4086 24.9361 50.3312 24.8738 50.2781 24.8313L50.2171 24.7826L50.2011 24.7699L50.1968 24.7666L50.1957 24.7657L50.1953 24.7654C50.1952 24.7653 50.1952 24.7653 49.886 25.1582C49.5768 24.7653 49.5767 24.7653 49.5766 24.7654L49.5762 24.7657L49.5751 24.7666L49.5708 24.77L49.5548 24.7826L49.4938 24.8313C49.4407 24.8738 49.3633 24.9361 49.265 25.0163C49.0685 25.1767 48.7885 25.4086 48.4527 25.6957C47.7818 26.2695 46.8854 27.0666 45.9874 27.9573C45.0916 28.8457 44.1827 29.8386 43.4942 30.8035C42.8228 31.7446 42.293 32.7506 42.293 33.6466C42.293 34.4689 42.5169 35.1813 42.9362 35.7781C43.3521 36.3703 43.942 36.8229 44.6374 37.1627C44.8524 37.2677 45.0792 37.3628 45.3164 37.4485V40.5993C43.2554 41.5895 41.5701 43.2169 40.5078 45.2341V43.0968C40.6254 43.0491 40.7395 42.9982 40.8499 42.9438C41.9503 42.4018 42.7133 41.4951 42.7133 40.1551C42.7133 39.4341 42.2931 38.6464 41.7846 37.9335C41.2595 37.1972 40.5684 36.444 39.8905 35.7735C39.2104 35.1007 38.5319 34.4998 38.0244 34.0677C37.7703 33.8513 37.5584 33.6767 37.4095 33.5558C37.3351 33.4954 37.2764 33.4483 37.2361 33.4162L37.1896 33.3794L37.1773 33.3697L37.174 33.3671L37.1731 33.3664L37.1728 33.3661C37.1727 33.3661 37.1727 33.366 36.8645 33.7598L37.1727 33.366L36.8645 33.1249L36.5564 33.366L36.8645 33.7598C36.5564 33.366 36.5563 33.3661 36.5562 33.3661L36.5559 33.3664L36.555 33.3671L36.5517 33.3697L36.5394 33.3794L36.493 33.4162C36.4526 33.4483 36.3939 33.4954 36.3195 33.5558C36.1706 33.6767 35.9587 33.8513 35.7046 34.0677C35.1971 34.4998 34.5186 35.1007 33.8385 35.7735C33.1605 36.444 32.4694 37.1972 31.9443 37.9335C31.4358 38.6464 31.0156 39.4341 31.0156 40.1551C31.0156 40.8003 31.1871 41.3656 31.5138 41.8422C31.8378 42.3148 32.2962 42.6742 32.8327 42.9424C32.959 43.0055 33.0904 43.0641 33.2266 43.1182V45.5873C30.1507 46.9935 27.9922 50.0836 27.9922 53.7619V70.9712V71.4712H28.4922H39.2734V71.4713H39.7734H60.2385V71.4712H71.0158H71.5158H71.6321V70.9712H72.0158V53.7619C72.0158 50.1554 69.901 47.009 66.7852 45.5842V43.0968C66.9027 43.0491 67.0168 42.9981 67.1272 42.9438C68.2276 42.4018 68.9906 41.4951 68.9906 40.1551C68.9906 39.4341 68.5704 38.6464 68.0619 37.9335C67.5368 37.1972 66.8457 36.444 66.1678 35.7735C65.4876 35.1007 64.8092 34.4998 64.3017 34.0677C64.0476 33.8513 63.8357 33.6767 63.6868 33.5558C63.6124 33.4954 63.5537 33.4483 63.5133 33.4162L63.4669 33.3794L63.4546 33.3697L63.4513 33.3671L63.4504 33.3664L63.4501 33.3661C63.45 33.3661 63.4499 33.366 63.1418 33.7598ZM63.1418 33.7598L63.4499 33.366L63.1418 33.1249L62.8336 33.366L63.1418 33.7598ZM39.5468 42.3672H39.5078V42.3779C38.7548 42.5814 37.8511 42.6783 36.8645 42.6783C35.8614 42.6783 34.9662 42.5858 34.2266 42.393V42.3672H34.1306C33.8162 42.2799 33.5314 42.1737 33.2799 42.048C32.8572 41.8366 32.5452 41.5782 32.3387 41.2769C32.1349 40.9795 32.0156 40.6146 32.0156 40.1551C32.0156 39.7715 32.264 39.2074 32.7585 38.5141C33.2363 37.8442 33.8824 37.1366 34.5417 36.4844C35.1987 35.8345 35.8575 35.2509 36.3529 34.8291C36.5548 34.6571 36.7291 34.5125 36.8645 34.4017C36.9999 34.5125 37.1742 34.6571 37.3761 34.8291C37.8715 35.2509 38.5302 35.8345 39.1873 36.4844C39.8466 37.1366 40.4927 37.8442 40.9705 38.5141C41.4649 39.2074 41.7133 39.7714 41.7133 40.1551C41.7133 41.0244 41.2554 41.6293 40.4081 42.0467C40.1515 42.1731 39.8627 42.2796 39.5468 42.3672ZM39.5078 43.4088V45.128C38.7092 44.8973 37.8617 44.7734 36.9805 44.7734C36.0222 44.7734 35.0963 44.9228 34.2266 45.2006V43.4219C35.0252 43.6019 35.9238 43.6783 36.8645 43.6783C37.793 43.6783 38.6978 43.598 39.5078 43.4088ZM65.7852 42.3672H65.8241C66.14 42.2797 66.4288 42.1731 66.6854 42.0467C67.5327 41.6293 67.9906 41.0244 67.9906 40.1551C67.9906 39.7714 67.7422 39.2074 67.2478 38.5141C66.77 37.8442 66.1239 37.1366 65.4646 36.4844C64.8075 35.8345 64.1488 35.2509 63.6534 34.8291C63.4515 34.6571 63.2771 34.5125 63.1418 34.4017C63.0064 34.5125 62.8321 34.6571 62.6302 34.8291C62.1348 35.2509 61.476 35.8345 60.819 36.4844C60.1597 37.1366 59.5136 37.8442 59.0358 38.5141C58.5414 39.2074 58.293 39.7714 58.293 40.1551C58.293 40.6146 58.4122 40.9795 58.616 41.2769C58.8226 41.5783 59.1345 41.8366 59.5573 42.048C59.8087 42.1737 60.0935 42.2799 60.4079 42.3672H60.5078V42.3941C61.2467 42.5862 62.1405 42.6783 63.1418 42.6783C64.1284 42.6783 65.0321 42.5814 65.7852 42.3779V42.3672ZM65.7852 45.198V43.4088C64.9752 43.598 64.0703 43.6783 63.1418 43.6783C62.2026 43.6783 61.3055 43.6022 60.5078 43.4227V45.1292C61.3088 44.8973 62.1547 44.7734 63.0275 44.7734C63.9939 44.7734 64.9198 44.9225 65.7852 45.198ZM53.9881 36.5527H53.457V36.7114C52.4445 36.9766 51.2277 37.1001 49.886 37.1001C48.5449 37.1001 47.3287 36.9768 46.3164 36.7118V36.5527H45.7838C45.5316 36.4672 45.2953 36.3712 45.0764 36.2642C44.4928 35.979 44.0506 35.6249 43.7544 35.2033C43.4615 34.7863 43.293 34.2777 43.293 33.6466C43.293 33.089 43.6498 32.3073 44.3083 31.3843C44.9498 30.4851 45.8141 29.5375 46.6916 28.6673C47.5668 27.7992 48.4436 27.0193 49.1027 26.4557C49.4254 26.1797 49.6952 25.9562 49.886 25.8004C50.0768 25.9562 50.3466 26.1797 50.6693 26.4557C51.3283 27.0193 52.2052 27.7992 53.0804 28.6673C53.9579 29.5375 54.8222 30.4851 55.4637 31.3843C56.1222 32.3073 56.479 33.089 56.479 33.6466C56.479 34.2777 56.3105 34.7863 56.0176 35.2033C55.7213 35.6249 55.2792 35.979 54.6955 36.2642C54.4767 36.3712 54.2403 36.4672 53.9881 36.5527ZM53.457 37.7415V40.0973C52.3762 39.7363 51.216 39.541 50.006 39.541C48.7065 39.541 47.4644 39.7662 46.3164 40.1801V37.7419C47.3896 37.9934 48.6086 38.1001 49.886 38.1001C51.1639 38.1001 52.3835 37.9933 53.457 37.7415ZM50.006 40.541C46.1753 40.541 42.899 42.6933 41.3061 45.8688C44.1083 47.401 45.9689 50.379 45.9689 53.7619V70.4713H54.0391V53.7619C54.0391 50.3139 55.9358 47.3827 58.7069 45.8709C57.1144 42.6942 53.8375 40.541 50.006 40.541ZM28.9922 70.4712H39.2734V50.2736C39.2734 48.8871 39.5298 47.566 39.9982 46.3547C39.0718 45.9802 38.0544 45.7734 36.9805 45.7734C32.6011 45.7734 28.9922 49.275 28.9922 53.7619V70.4712ZM40.2734 50.2736V70.4712H44.9689V53.7619C44.9689 50.7839 43.3499 48.1622 40.903 46.7892C40.4958 47.8684 40.2734 49.0424 40.2734 50.2736ZM71.0158 70.4712H60.7385V50.2736C60.7385 48.8878 60.4824 47.5674 60.0145 46.3566C60.9463 45.9798 61.9642 45.7734 63.0275 45.7734C67.5143 45.7734 71.0158 49.3824 71.0158 53.7619V70.4712ZM55.0391 53.7619C55.0391 50.7289 56.6881 48.1461 59.1096 46.7908C59.5164 47.8695 59.7385 49.043 59.7385 50.2736V70.4712H55.0391V53.7619ZM65.3515 53.5625C64.8137 53.5625 64.3398 54.0363 64.3398 54.5741V63.4928H66.3631V54.5741C66.3631 54.0363 65.8893 53.5625 65.3515 53.5625ZM66.9794 63.9928V64.4928H66.8631H66.3631H63.8398H63.3398V63.9928V54.5741C63.3398 53.484 64.2615 52.5625 65.3515 52.5625C66.4416 52.5625 67.3631 53.484 67.3631 54.5741V63.9928H66.9794ZM33.4102 54.5741C33.4102 54.0363 33.884 53.5625 34.4218 53.5625C34.9596 53.5625 35.4334 54.0363 35.4334 54.5741V63.4928H33.4102V54.5741ZM36.0497 64.4928V63.9928H36.4334V54.5741C36.4334 53.484 35.5119 52.5625 34.4218 52.5625C33.3317 52.5625 32.4102 53.484 32.4102 54.5741V63.9928V64.4928H32.9102H35.4334H35.9334H36.0497Z" fill="#56265C"/>
	</symbol>

	<symbol id="direction-2" fill="none" viewBox="0 0 100 100" xmlns="http://www.w3.org/2000/svg">
		<circle cx="50" cy="50" r="49.5" stroke="#56265C"/>
		<path fill-rule="evenodd" clip-rule="evenodd" d="M41.1494 24.1221H41.6494H58.7691H59.2691V24.2539H68.9091C71.3039 24.2539 73.0964 26.2014 73.0964 28.4412V71.1089C73.0964 73.3487 71.3038 75.2961 68.9091 75.2961H31.9041C29.5094 75.2961 27.7168 73.3487 27.7168 71.1089V28.4412C27.7168 26.0465 29.6643 24.2539 31.9041 24.2539H41.1494V24.1221ZM58.2691 25.2539H42.1494V28.0728H58.2691V25.2539ZM41.1494 28.5728V25.2539H31.9041C30.1932 25.2539 28.7168 26.6219 28.7168 28.4412V32.5498H72.0964V28.4412C72.0964 26.7303 70.7284 25.2539 68.9091 25.2539H59.2691V28.5728V29.0728H58.7691H41.6494H41.1494V28.5728ZM28.7168 49.144V33.5498H72.0964V49.144H60.9393C60.7542 45.2033 58.3471 41.5312 54.4609 39.9215C49.0989 37.7004 42.9517 40.2467 40.7306 45.6087C40.2511 46.7663 39.9938 47.9606 39.939 49.144H28.7168ZM72.0964 50.144H60.9384C60.881 51.3185 60.624 52.5032 60.1482 53.6518C57.9271 59.0138 51.7797 61.5601 46.4177 59.3391C42.5407 57.7331 40.1358 54.0744 39.9407 50.144H28.7168V66.1313H72.0964V50.144ZM72.0964 67.1313H28.7168V71.1089C28.7168 72.8198 30.0848 74.2961 31.9041 74.2961H41.1494V70.7134V70.2134H41.6494H58.7691H59.2691V70.7134V74.2961H68.9091C70.7285 74.2961 72.0964 72.8198 72.0964 71.1089V67.1313ZM40.9424 50.144C41.1362 53.6818 43.3084 56.9687 46.8004 58.4151C51.6522 60.4249 57.2146 58.1209 59.2243 53.2691C59.6482 52.2457 59.8802 51.1907 59.9368 50.144H40.9424ZM59.9379 49.144C59.7537 45.5959 57.5793 42.2957 54.0782 40.8454C49.2265 38.8357 43.6642 41.1396 41.6545 45.9914C41.2269 47.0238 40.9945 48.0884 40.9405 49.144H59.9379ZM42.1494 74.1641V71.2134H58.2691V74.1641H42.1494Z" fill="#56265C"/>
	</symbol>

	<symbol id="direction-3" fill="none" viewBox="0 0 100 100" xmlns="http://www.w3.org/2000/svg">
		<circle cx="50" cy="50" r="49.5" stroke="#56265C"/>
		<path d="M50.8105 60.2044C51.6155 60.2044 52.4206 59.936 52.9573 59.3993L57.2506 55.1061L63.8247 48.666" stroke="#56265C" stroke-miterlimit="10"/>
		<path d="M81.4052 34.1787C81.4052 38.8745 78.4535 42.6311 74.9651 45.9852L61.5485 58.9995C60.8777 59.6703 59.6702 60.0728 58.4627 59.6703C57.3894 59.2678 56.5844 58.3286 56.4502 57.2552C56.316 56.3161 56.5844 55.5112 57.121 54.9745C57.121 54.8403 57.2553 54.8402 57.2553 54.7061L63.6952 48.4003" stroke="#56265C" stroke-miterlimit="10"/>
		<path d="M50.2783 53.4974L59.5357 44.374" stroke="#56265C" stroke-miterlimit="10"/>
		<path d="M55.376 40.0771L49.4727 45.9803" stroke="#56265C" stroke-miterlimit="10"/>
		<path d="M69.9996 19.9551C68.1212 21.8334 65.572 22.9067 62.8887 22.9067C61.547 22.9067 60.0712 22.9066 58.7296 23.1749L44.2396 24.6509L44.3738 26.1267C44.5079 27.3342 45.0446 28.4075 45.9838 29.0783C46.9229 29.8833 48.1305 30.1517 49.2038 30.0175L53.7654 29.4809C54.4362 29.3467 54.9729 29.7492 55.2413 30.2858C55.5096 30.8225 55.3754 31.4934 54.9729 32.03L39.9463 46.9225" stroke="#56265C" stroke-miterlimit="10"/>
		<path d="M38.6035 62.2177L47.7268 53.0943C48.1293 52.6918 48.666 52.5576 49.3368 52.5576C50.6785 52.5576 51.7518 53.631 51.7518 54.9727C51.7518 55.6435 51.4835 56.3142 51.081 56.7167L47.5927 60.2052L42.226 65.5718" stroke="#56265C" stroke-miterlimit="10"/>
		<path d="M27.998 79.9294C31.8889 79.9294 37.1214 77.6486 39.9389 74.9653L50.8063 63.9636C51.343 63.4269 51.7455 62.4877 51.343 61.4144C51.0747 60.4752 50.2697 59.9386 49.3305 59.8044C48.6597 59.6703 47.9888 59.9386 47.4522 60.3411L47.318 60.4753L42.0855 65.7078" stroke="#56265C" stroke-miterlimit="10"/>
		<path d="M35.2539 58.7313L43.5722 50.413L47.0605 46.9247C47.463 46.5222 48.1338 46.2539 48.8047 46.2539C50.1463 46.2539 51.2197 47.3271 51.2197 48.6688C51.2197 49.3396 50.9514 50.0105 50.5489 50.413L47.8656 53.0964L38.7422 62.2197" stroke="#56265C" stroke-miterlimit="10"/>
		<path d="M18.6133 70.8062C20.2233 69.1962 21.0283 67.1839 21.0283 64.9031C21.0283 63.8297 21.0283 62.6221 21.1625 61.4146L22.5041 49.4739L23.7117 49.6081C24.6508 49.7422 25.59 50.1447 26.1266 50.9497C26.7975 51.7547 27.0658 52.6939 26.9316 53.6331L26.5291 57.3896C26.5291 57.9263 26.7975 58.463 27.2 58.5971C27.6025 58.8655 28.2733 58.7314 28.5416 58.3289L39.9458 46.9247C40.3483 46.5222 41.0191 46.2539 41.6899 46.2539C43.0316 46.2539 44.1049 47.3271 44.1049 48.6688C44.1049 49.3396 43.8365 50.0105 43.434 50.413L35.1158 58.7313" stroke="#56265C" stroke-miterlimit="10"/>
	</symbol>
</svg>
